<?xml version="1.0" encoding="utf-8"?>
<!-- Generator: Adobe Illustrator 23.1.1, SVG Export Plug-In . SVG Version: 6.00 Build 0)  -->
<svg version="1.1" id="Layer_1" xmlns="http://www.w3.org/2000/svg" xmlns:xlink="http://www.w3.org/1999/xlink" x="0px" y="0px"
	 viewBox="0 0 291.6 71.2" style="enable-background:new 0 0 291.6 71.2;" xml:space="preserve">
<style type="text/css">
	.st0{fill:#A90C1C;}
	.st1{fill:none;stroke:#A90C1C;stroke-miterlimit:10;}
</style>
<g id="Shape_1" transform="translate(30.258 29)">
	<g id="Group_26">
		<path id="Path_2" class="st0" d="M10.9,12.6V-29h-22.6v42l-18.6,26h59.8L10.9,12.6z M9,28.6c-0.3,0.4-1.2,0.6-1.6,0.6
			c-0.7,0-3.3,0.1-3.5,0.2c-0.7,0.2-1.4,0.5-2,0.9c-0.1,0.1-0.1,0.1,0,0.2s0.8,0.8,1.1,1.1c0.4,0.4,1.3,1.4,1.4,1.9
			c0.1,0.4-0.1,0.9-0.5,1.2c-0.5,0.4-1,0.6-1.5,0.8c-0.5,0.2-1.1,0.3-1.7,0.4c-0.5,0-0.9,0-1.4,0c-0.2,0-0.4-0.1-0.6-0.1
			c-0.4,0-0.8,0-1.2,0c-1,0-1.9-0.3-2.8-0.9c-0.3-0.2-0.6-0.6-0.7-1c-0.1-0.5-0.2-1.1,0-1.6c0.2-0.3,0.5-0.6,0.8-0.8
			c0.2-0.1,1.2-0.6,1.3-0.6c0.2-0.1,0.4-0.4,0.4-0.7c-0.1-0.3-0.2-0.5-0.5-0.6c-0.5-0.2-1-0.4-1.5-0.5c-0.5-0.1-1-0.1-1.5-0.2
			c-0.7-0.1-1.4-0.1-2.1-0.1c-0.3,0-0.7-0.1-1-0.2c-0.1-0.1-0.2-0.2-0.2-0.3c-0.1-0.2-0.1-0.5-0.1-0.8c0-0.4,0.1-0.8,0.2-1.2
			c0-0.2,0.1-0.4,0.1-0.5c0-0.1,0.1-0.2,0.2-0.4c0.1-0.3,0.2-0.7,0.1-1c0-0.1,0-0.2,0-0.3c0-0.1,0.1-0.3,0.2-0.4
			c0.5-0.5,1.9-1.9,2-1.9c0.1-0.1,0.3-0.1,0.4-0.2c0.1,0,0.2,0,0.3-0.1c0.3,0,0.6-0.2,0.8-0.4c0.8-0.9,1.5-1.9,2.3-2.9
			c0.2-0.3,0.4-0.6,0.6-0.9c0.1-0.2,0.4-0.8,0.7-1.2c0.1-0.1,0.2-0.5,0.3-0.6c0.1-0.1,0.3,0,0.2-0.1c-0.1-0.2-0.8-0.6-1-0.7
			c-0.2-0.1-0.4-0.2-0.4-0.5c0-0.1,0-0.2,0.1-0.3c-0.5-0.1-0.3-0.5,0-0.8c0.3-0.4,1-1,1.6-1.5c0.2-0.2,0.3-0.3,0.3-0.5
			c-0.1-0.3-0.3,0.1-0.3-0.4c0-0.4,0-0.9,0-1.3c0-0.6-0.2-1.3-0.2-2.1c-0.2-1.7-0.3-3.7-0.5-4.5C-2.8,1.1-3.9-3-4.1-3.9
			c-0.1-0.3-0.1-0.7-0.2-1c-0.1-0.2-0.2-0.3-0.3-0.4C-4.8-5.5-5-5.5-5.2-5.6c-0.1-0.1-0.1-0.2-0.1-0.2c-0.3-0.8-0.5-1.6-0.6-2.4
			c-0.1-0.5-0.2-1-0.3-1.5c-0.1-0.2-0.1-0.5,0-0.7c0-0.5,0.2-1,0.2-1.5c0-0.3,0-0.6,0-0.8c0-0.4-0.1-0.7,0-1.1
			c0.1-1.3,0.1-3.3,0.5-3.9c0-0.1,0.1-0.1,0.2-0.2c1-0.5,2.1-0.6,2.6-1.2c0.4-0.4,0.6-0.9,0.5-1.4c0-0.5-0.5-0.9-0.7-1.4
			c-0.1-0.9,0-1.7,0.3-2.5c0.2-0.4,0.8-1.1,1.3-0.9c0.1,0,0.2,0.1,0.3,0.1c0.3,0.1,0.5-0.2,0.8-0.1c0.2,0.1,0.4,0.2,0.6,0.3
			c0.5,0.3,0.8,0.8,0.8,1.4C1-22.7-0.2-21-0.1-20.7c0.2,0.4,0.6,0.8,1,1c0.5,0.1,1,0.3,1.5,0.4s1.3,0.2,1.5,0.8
			c0.1,0.4,0.2,0.7,0.2,1.1c0.1,0.4,0.2,1.2,0.3,1.6c0,0.1,0,0.2,0,0.3c0.1,0.8-0.2,3.3,0.1,3.7s0.8,0.5,0.7,1
			c-0.1,0.5-0.1,1.1,0,1.6C5.5-8.6,5.5-8,5.5-7.4c-0.1,0.5,0,0.7-0.2,1S4.5-6.2,4.4-5.9s0,4.7-0.1,6.8c0,1.3,0.2,2.7,0.4,4
			c0.1,0.5,0.1,3,0.1,3.3c0,0.4,0.2,1.4,0.3,2.1c0.1,0.3,0.1,0.6,0.1,1c-0.1,0.1-0.1,0-0.2,0.1c0,0.2,0,0.5,0.1,0.7
			c0.2,0.4,1.1,1.7,1,2.2c0,0.1-0.1,0.2-0.1,0.3c0.1,0.1,0.1,0.2,0.1,0.4c0,0.4-0.6,0.8-0.7,0.8s0,0.3,0,0.6c0,0.5,0,0.9,0.1,1.3
			c0,0.2,0.4,1,0.4,1.2c0.1,0.2,0.8,1.5,1,1.9c0.2,0.4,0.5,0.8,0.9,1.1C8.1,22.2,8,22,8.4,22c0.3,0,0.6,0.4,0.7,0.7s0.2,0.7,0.2,0.9
			s0.1,0.6,0.1,0.7s0,0.2-0.2,0.4s0.2,1.6,0.3,2C9.5,27.4,9.4,28,9,28.6z M2,12.8c0,0-0.1-0.1-0.1-0.1c-0.1-0.5,0-1,0.1-1.4
			c0.1-0.2-0.1-0.1-0.1-0.3C2,10.3,2,9.4,2,8.7c0-0.6-0.1-1.2-0.2-1.8C1.6,5.8,1.4,4.6,1.3,3.4C1.4,2.7,1,0.8,1,0
			C0.9-0.8,0.7-1.5,0.5-2.2c-0.1-0.2-0.2-0.3-0.4,0C0.1-2.2,0.3-1,0.3,0.5c0,0.5-0.1,1.1,0,1.7c0.1,1.7,0.2,3.3,0.3,3.6
			C0.6,6.5,0.9,7.6,1,8.6c0.1,0.6-0.1,1.5-0.1,1.9c0,0.2-0.2,0-0.2,0.3c0,0.4,0.4,0.9,0.4,1.3c0,0.5,0,0.7-0.5,0.9
			c-0.3,0.1-0.9,0.3-1.2,0.4c-0.3,0.1-0.6,0.2-0.9,0.4c0.3,0.1,0.6,0.3,0.8,0.4c0.2,0.1,0.6,0.1,0.8,0.2c0.5,0.2,0.7,0.3,0.6,1.1
			c0,0.2-0.3,0.4-0.4,0.6c0,0,0.1,0.1,0.1,0.2c-0.2,0.9-0.6,2.2-0.1,2.9c0.1,0.1,0.3,0.2,0.4,0.2c0.2,0,0.4-0.1,0.6-0.2
			c0.3-0.5,0.4-1.1,0.4-1.7c0-0.3,0.1-0.6,0.1-0.9c0-0.4,0-1.5,0-1.9c0-0.3,0-0.4,0.1-0.5c0.2-0.1-0.2-0.7-0.1-1.2
			C1.9,13,2,12.9,2,12.8L2,12.8z"/>
	</g>
</g>
<path id="Path_3" class="st0" d="M82.9,30.3c-0.2,0.6-0.8,0.9-1.4,0.8c-0.6,0.1-1.1-0.2-1.4-0.7c-0.3-1.2-0.4-2.5-0.3-3.7v-9.5
	l0.1,0c0.2-1.7,0.1-3.5-0.1-5.2v-1.6c0-0.6,0-1.3,0.1-1.9c0.2-1,0.5-1.7,1.2-1.8c2.5-0.6,2.1,2.5,2.1,4.6c0,1.7,0,3.3,0.1,4.8v10.3
	C83.3,27.7,83.2,29,82.9,30.3 M93.6,8.4c-0.3-1.6-1-3.1-2.1-4.3c-2-2.1-5-3-8.8-3.3h-2.2c-4.9,0.4-8.7,2-10.3,5.6c0,0,0,0.1,0,0.1
	c-0.1,0.3-0.2,0.6-0.3,0.9c0,0,0,0,0,0.1c-0.4,1.3-0.6,2.7-0.5,4.1v7.8h0v2.5c-0.1,2.5,0,5,0.3,7.5c0.2,1.5,0.9,2.9,1.9,4
	c1.1,1.3,2.6,2.2,4.2,2.7c1.9,0.6,3.9,0.9,5.9,0.9c2.1,0,4.1-0.3,6.1-1c1.6-0.5,3-1.5,4.1-2.8c1-1.1,1.6-2.5,1.8-4
	c0.2-2.5,0.3-4.9,0.3-7.4v-5.9c0-0.4,0-0.7,0-1.1h0C94,12.7,93.9,10.6,93.6,8.4L93.6,8.4"/>
<path id="Path_4" class="st0" d="M151.1,21.7h6.6v-6.6h-6.6v-1.9h0c0-0.7,0-1.4,0-2.1V10c0-0.5,0-0.9,0.1-1.4h7V1.5h-17.7
	c0,0,0,0.1,0,0.1h0v0.3c-0.2,3.3,0,7-0.1,10.4h0.1v24h18.4v-7h-7.8V21.7z"/>
<path id="Path_5" class="st0" d="M271.7,29.3v-7.6h6.6v-4c0.1-0.8,0-1.8,0-2.7h-6.6V8.6h7.1V1.5h-17.8v0.1l0,0v34.7h18.4v-7H271.7z"
	/>
<path id="Path_6" class="st0" d="M119.5,1.5L119.5,1.5l-0.1,1.8c-0.1,2.9,0,6,0,9h0v23.9H130V21.7h6.5v-6.6H130V12h0.1V8.6h7.3V1.5
	L119.5,1.5C119.5,1.5,119.5,1.5,119.5,1.5"/>
<path id="Path_7" class="st0" d="M98.4,1.5L98.4,1.5l0,0.9c-0.1,3.8,0,7.9-0.1,11.7l0.1,0v22h10.6V21.7h6.5v-6.6h-6.5v-2h0
	c0-1.5,0-3,0.1-4.5h7.3V1.5L98.4,1.5C98.4,1.5,98.4,1.5,98.4,1.5"/>
<path id="Path_8" class="st0" d="M218.2,1.5L218.2,1.5l0,0.9c-0.2,6.7,0,13.7-0.1,20.4h0.1v13.4h10.6V22.7h0V1.5L218.2,1.5
	C218.2,1.5,218.2,1.5,218.2,1.5"/>
<path id="Path_9" class="st0" d="M247.5,1.7c-0.7,6.7-1.5,13.3-2.1,20c0,0,0,0,0.1,0c-0.1,1.3-0.2,2.7-0.4,4
	c-0.1-1.3-0.2-2.6-0.4-3.9h0c-0.7-6.9-1.5-13.7-2.4-20.4h-11.1c0,0,0,0.1,0,0.1h-0.1l0.5,2.7c0.9,6,2.2,12.1,3.2,18.1h0l2.5,13.8
	h16.1l2.4-15.3c0,0,0.1,0,0.1,0c0.9-6.6,2.1-12.9,3-19.5h-11.1C247.5,1.5,247.5,1.6,247.5,1.7"/>
<path id="Path_10" class="st0" d="M177.1,16.7c-1.8-5.2-3.9-10.1-5.7-15.3h-8.9c-0.1,0-0.1,0.1-0.1,0.3V15l0,0v21.2h8.9V20.5
	l5.5,15.8h9.3V20.6l0.1,0V1.5h-9C177.2,6.5,177.4,11.8,177.1,16.7"/>
<path id="Path_11" class="st0" d="M213.8,22.8c-0.1-0.4-0.2-0.7-0.4-1.1c-0.2-0.6-0.6-1.2-1-1.7c-0.2-0.2-0.4-0.5-0.6-0.7
	c-2-2.2-5.1-3.7-7.6-5c-1.3-0.7-2.9-1.3-3.6-2.3c-0.6-1-0.8-4,0.3-5c0.3-0.2,0.7-0.3,1-0.3c0.1,0,0.2,0,0.4,0c0.1,0,0.3,0.1,0.4,0.1
	c1.2,0.5,0.7,3.1,0.8,5.1h0V12h1.6c2.7,0.1,5.5,0,8.3,0c0-3,0.1-5.5-0.9-7.3c-1.2-2.2-3.7-3.1-6.7-3.6c-0.9-0.2-1.7-0.3-2.6-0.3
	l-0.2,0c-0.1,0-0.2,0-0.2-0.1h-2.4c-3.9,0.2-7.8,1.5-9.3,4.1c-1.2,2.1-1.4,5.3-0.8,8.1c0,0.1,0.1,0.3,0.1,0.4c0,0,0,0,0,0.1
	c0.1,0.6,0.3,1.1,0.5,1.7c0,0,0,0.1,0.1,0.1c0.4,0.9,0.9,1.7,1.6,2.4c1.3,1.2,3.8,2.4,5.7,3.5c0.6,0.4,1.2,0.8,1.9,1.1
	c0,0,0,0,0.1,0c1.1,0.6,2.1,1.3,3,2c0.7,0.6,1,2,1,4c0.1,0.7-0.1,1.5-0.5,2.1c-0.4,0.5-1,0.8-1.6,0.7c-0.5,0.1-1.1-0.1-1.5-0.6
	c-0.4-0.8-0.5-1.7-0.4-2.5v-4.2h-9.8v2.3c-0.1,2.1,0.2,4.1,0.9,6c0.8,1.6,2.2,2.9,3.9,3.5c2.3,1,4.8,1.4,7.3,1.4
	c2.3,0,4.6-0.4,6.8-1.2c1.6-0.5,3-1.6,3.9-2.9c0.8-1.7,1.1-3.6,1-5.5C214.3,25.8,214.2,24.3,213.8,22.8L213.8,22.8"/>
<path id="Path_12" class="st0" d="M287.7,8.9c-1.7,0-3.1-1.4-3-3.1c0-1.6,1.3-3,3-3h0c1.7,0,3,1.4,3,3c0,0,0,0,0,0.1
	C290.7,7.5,289.4,8.8,287.7,8.9C287.8,8.9,287.7,8.9,287.7,8.9 M287.7,1.9L287.7,1.9c-2.2,0-4,1.8-4,4c0,2.2,1.8,4,4,3.9
	s4-1.8,3.9-4C291.6,3.7,289.9,1.9,287.7,1.9 M287.5,5.6h-0.4V4.5c0.2,0,0.3-0.1,0.5,0c0.6,0,0.8,0.2,0.8,0.6
	C288.4,5.5,288,5.6,287.5,5.6 M288.6,5.9L288.6,5.9c0.4-0.1,0.8-0.5,0.8-1c0-0.3-0.1-0.6-0.4-0.8c-0.4-0.2-0.9-0.4-1.3-0.3
	c-0.5,0-1,0-1.5,0.1v3.9h0.9V6.3h0.4c0.5,0,0.7,0.2,0.8,0.6c0.1,0.3,0.2,0.6,0.3,0.9h0.9c-0.1-0.3-0.2-0.6-0.3-0.9
	C289.1,6.3,288.9,6,288.6,5.9"/>
<path id="Path_13" class="st1" d="M267.6,45.7l-2,14.8l-4.1-14.8h-11.2l6.8,18.4c0.3,0.7,0.6,1.5,0.8,2.3c0,0.4-0.3,0.6-0.8,0.7
	c-1.2,0.1-2.5,0.2-3.7,0.2v3.5h7.5c2.5,0.1,5-0.1,7.5-0.4c1.3-0.2,2.5-0.6,3.7-1.3c0.8-0.5,1.5-1.3,1.9-2.3c0.6-1.7,1.1-3.4,1.4-5.1
	l3.5-15.9L267.6,45.7z M245.6,61.4V49.7h3.4v-3.5h-3.4v-3.5h-12.4v3.5h-2.6v3.5h2.6v11.1c-0.1,1.4,0,2.8,0.3,4.2
	c0.4,0.7,1,1.3,1.7,1.6c1,0.5,2.1,0.8,3.2,0.9c1.2,0.1,3.2,0.2,6,0.2h5v-3.5c-1.2,0.1-2.3,0-3.5-0.2
	C245.8,63.6,245.6,62.8,245.6,61.4z M218.1,44.4h10.5v-3.5h-10.5L218.1,44.4z M218.1,67.6h10.5V45.7h-10.5L218.1,67.6z M207.9,48.6
	l0.5-2.9H196v21.9h12.4v-8.7c-0.1-1.4,0-2.7,0.4-4.1c0.4-0.7,1.1-1.2,2-1.4c1.6-0.4,3.3-0.6,5-0.5v-7.7
	C212.3,45.4,209.7,46.5,207.9,48.6L207.9,48.6z M179.2,60.4c0.1,1.1,0,2.1-0.3,3.2c-0.2,0.3-0.7,0.5-1.6,0.5c-0.9,0-1.4-0.2-1.6-0.5
	c-0.3-1-0.4-2-0.3-3V45.7h-12.4v14.8c0,1.3,0,2.5,0.2,3.8c0.2,0.7,0.6,1.3,1.1,1.8c0.8,0.7,1.7,1.2,2.7,1.4c1.5,0.4,3.1,0.6,4.6,0.5
	c1.5,0,2.9-0.2,4.3-0.6c1.2-0.3,2.2-0.9,3.2-1.7l-0.2,1.8h12.6V45.7h-12.4V60.4z M159.6,54c0.1-1.7-0.3-3.3-1.1-4.8
	c-0.8-1.1-2.3-2.1-4.6-2.8c-2.7-0.8-5.5-1.2-8.3-1.1c-2.8-0.1-5.6,0.3-8.3,1.1c-2.3,0.7-3.7,1.6-4.4,2.5c-0.8,1.3-1.1,2.7-1,4.2v6.2
	c-0.5,3.6,2,7,5.6,7.7c5,1.2,10.2,1.3,15.2,0.3c1.6-0.4,3.2-1.1,4.5-2.1c1-0.7,1.7-1.6,2.1-2.7c0.3-1.3,0.4-2.6,0.4-3.9h-11v2.6
	c0.1,0.8-0.1,1.6-0.4,2.3c-0.4,0.5-1.1,0.7-1.7,0.6c-0.6,0-1.2-0.2-1.6-0.6c-0.4-0.5-0.6-1.1-0.6-1.8V51.4c-0.1-0.6,0.1-1.3,0.4-1.9
	c0.4-0.3,0.9-0.5,1.4-0.4c0.5-0.1,1.1,0.1,1.5,0.5c0.3,0.5,0.5,1.2,0.4,1.8V54L159.6,54z M115.8,53.4h-3.7v-1.6
	c-0.1-0.8,0-1.6,0.3-2.3c0.2-0.3,0.7-0.4,1.6-0.4c0.5-0.1,1,0.1,1.4,0.5c0.3,0.7,0.4,1.4,0.3,2.2L115.8,53.4z M122.1,46.3
	c-5.3-1.4-10.8-1.4-16.2-0.2c-1.8,0.4-3.4,1.3-4.7,2.5c-1,1.3-1.5,2.9-1.4,4.5v6.4c-0.1,1.3,0.2,2.5,0.6,3.7c0.5,1,1.3,1.8,2.3,2.3
	c1.4,0.8,3,1.4,4.7,1.7c2.3,0.4,4.6,0.6,6.9,0.6c2.3,0,4.5-0.2,6.7-0.6c1.6-0.3,3.1-1,4.4-1.9c0.9-0.6,1.7-1.4,2.2-2.3
	c0.4-1,0.5-2.1,0.5-3.1v-1.6h-11.7v2.9c0.1,0.8-0.1,1.6-0.5,2.2c-0.5,0.5-1.2,0.7-1.9,0.6c-0.6,0.1-1.1-0.1-1.5-0.4
	c-0.3-0.6-0.5-1.3-0.4-1.9V57h16.1v-2.9c0.1-1.8-0.4-3.5-1.4-4.9C125.6,47.8,123.9,46.8,122.1,46.3L122.1,46.3z M95.1,57.5
	c-1.1-0.8-3.5-1.7-7.1-2.7c-1.8-0.4-3.6-1-5.3-1.6c-0.6-0.2-1.1-0.5-1.6-1c-0.2-0.5-0.3-1-0.3-1.5c0-0.4,0.2-0.9,0.5-1.1
	c0.5-0.3,1-0.4,1.6-0.4c0.9,0,1.4,0.1,1.6,0.4c0.3,0.6,0.4,1.3,0.3,1.9v1.2h11v-1.3c0-0.8-0.1-1.6-0.3-2.4c-0.4-0.7-1.1-1.3-1.8-1.7
	c-1.4-0.7-2.8-1.2-4.4-1.5c-2.3-0.4-4.6-0.6-6.9-0.6c-2.4,0-4.8,0.2-7.2,0.7c-1.6,0.2-3.1,0.9-4.4,1.9c-0.9,1.1-1.4,2.5-1.3,3.9
	c0,1.2,0.4,2.3,1.2,3.2c0.8,0.9,3,1.9,6.7,3c4.3,1.3,6.7,2.1,7.2,2.3c0.4,0.3,0.7,0.9,0.7,2c0.1,0.6-0.1,1.1-0.5,1.5
	c-0.6,0.3-1.2,0.4-1.8,0.4c-0.6,0.1-1.2-0.1-1.6-0.5c-0.4-0.7-0.5-1.5-0.4-2.3v-1.4H70V61c-0.1,1.5,0.3,2.9,1.3,4.1
	c1.3,1.1,2.9,1.9,4.6,2.1c2.7,0.6,5.4,0.8,8.1,0.8c2.4,0,4.9-0.2,7.3-0.7c1.6-0.3,3.1-1,4.3-2.1c0.9-1.1,1.4-2.6,1.3-4
	C96.9,59.7,96.3,58.3,95.1,57.5L95.1,57.5z"/>
</svg>
